<?xml version="1.0" encoding="UTF-8"?>
<svg width="22px" height="18px" viewBox="0 0 22 18" version="1.1" xmlns="http://www.w3.org/2000/svg" xmlns:xlink="http://www.w3.org/1999/xlink">
    <!-- Generator: Sketch 64 (93537) - https://sketch.com -->
    <title>icon - chat</title>
    <desc>Created with Sketch.</desc>
    <g id="Mu---Covid-19-Banner" stroke="none" stroke-width="1" fill="none" fill-rule="evenodd">
        <g id="Banner---Add-Insurance" transform="translate(-1025.000000, -174.000000)">
            <g id="Nav-Desktop" transform="translate(0.000000, 143.000000)">
                <g id="Live-chat" transform="translate(1026.000000, 29.000000)">
                    <g id="icon---chat">
                        <rect id="bounding-box" fill-opacity="0" fill="#D8D8D8" x="0" y="0" width="20" height="20"></rect>
                        <path d="M13.616,4.2 L7.384,4.2 C4.25,4.2 1.7,6.576 1.7,9.498 C1.7,11.546 2.988,13.43 4.982,14.298 L5.7,14.614 L5.7,17.246 L8.17,15.092 L8.5,14.796 L13.616,14.796 C16.75,14.796 19.3,12.42 19.3,9.498 C19.3,6.576 16.75,4.2 13.616,4.2 Z M6.444,11 C5.97670703,11.0032057 5.55393839,10.7233223 5.37438704,10.2918895 C5.19483569,9.8604566 5.29420818,9.36327137 5.62580139,9.03400105 C5.95739461,8.70473073 6.45526612,8.60885581 6.88542611,8.7914356 C7.3155861,8.9740154 7.59249062,9.39874111 7.586,9.866 C7.57619619,10.490324 7.06839742,10.9918976 6.444,10.994 L6.444,11 Z M10.488,11 C9.85342494,10.9944732 9.34326791,10.4759623 9.34804805,9.84138119 C9.3528282,9.20680006 9.87073853,8.69603333 10.5053248,8.70006684 C11.1399111,8.70410036 11.6512869,9.22140938 11.6480158,9.856 C11.6349531,10.4875861 11.1197201,10.9930474 10.488,10.994 L10.488,11 Z M14.556,11.0000155 C13.9219352,11.0032611 13.4048676,10.4926855 13.4001177,9.85863006 C13.3953677,9.22457467 13.9047279,8.70630964 14.5387703,8.70007088 C15.1728128,8.69383211 15.6922725,9.20197391 15.7,9.836 C15.7026631,10.1415054 15.5834393,10.4354707 15.3687239,10.6528136 C15.1540086,10.8701566 14.8615152,10.9929471 14.556,10.994 L14.556,11.0000155 Z" id="Shape"></path>
                        <path d="M13.116,3 L6.884,3 C3.082,3 0,5.91 0,9.498 L0,9.498 C0,12.116 1.64,14.37 4,15.4 L4,17.768 C4,18.496 4.288,18.888 4.726,18.888 C5.07553524,18.8544007 5.40202,18.6985946 5.648,18.448 L8.448,15.996 L13.116,15.996 C16.916,15.996 20,13.086 20,9.498 L20,9.498 C20,5.91 16.918,3 13.116,3 Z M13.116,14.8 L8,14.8 L7.66,15.096 L5.2,17.246 L5.2,14.614 L4.48,14.3 C2.488,13.43 1.2,11.544 1.2,9.498 C1.2,6.576 3.75,4.2 6.884,4.2 L13.116,4.2 C16.25,4.2 18.8,6.576 18.8,9.498 C18.8,12.42 16.25,14.796 13.116,14.796 L13.116,14.8 Z" id="Shape" stroke="#3667E9" stroke-width="0.4" fill="#3667E9" fill-rule="nonzero"></path>
                        <path d="M10.0972615,8.444 C9.37958844,8.44152151 8.79566663,9.02106725 8.79274851,9.73873379 C8.78985218,10.4564003 9.3690595,11.0406578 10.0867292,11.044 C10.8043988,11.0473137 11.3889998,10.468453 11.3927485,9.75079034 C11.3903305,9.03447487 10.8135339,8.45264913 10.0972615,8.444 L10.0972615,8.444 Z" id="Path" fill="#3667E9" fill-rule="nonzero"></path>
                        <path d="M5.81797391,8.4441253 C5.29205754,8.43684694 4.81357879,8.74720572 4.60578454,9.23039556 C4.39799029,9.71358539 4.50183233,10.27438 4.86886042,10.6511257 C5.2358885,11.0278715 5.79376928,11.14632 6.28220875,10.951206 C6.77064822,10.7560919 7.09338546,10.2858681 7.0998389,9.75992986 C7.10527282,9.41518081 6.97305273,9.0824886 6.73245647,8.83552214 C6.49186021,8.58855568 6.16274005,8.44769286 5.81797391,8.4441253 L5.81797391,8.4441253 Z" id="Path" fill="#3667E9" fill-rule="nonzero"></path>
                        <path d="M14.39838,8.44412625 C13.8701819,8.43678914 13.390064,8.74980684 13.1836724,9.2360672 C12.9772808,9.72232755 13.0856596,10.2851302 13.4578729,10.6599689 C13.8300862,11.0348077 14.3921136,11.1471401 14.8798134,10.9441721 C15.3675131,10.7412041 15.6838985,10.2632991 15.6802747,9.73506297 C15.6778408,9.02662786 15.1067812,8.45154029 14.39838,8.44412625 Z" id="Path" fill="#3667E9" fill-rule="nonzero"></path>
                    </g>
                </g>
            </g>
        </g>
    </g>
</svg>